<svg width="250" height="60" viewBox="0 0 250 60" fill="none" xmlns="http://www.w3.org/2000/svg">
<path fill-rule="evenodd" clip-rule="evenodd" d="M0 8.22645V43.5736C0 48.1203 3.78733 51.8001 8.46686 51.8001H15.4588C16.3875 51.8001 17.2797 52.2247 17.8441 52.9323L22.5965 58.8589C23.8165 60.3804 26.1653 60.3804 27.3853 58.8589L32.1376 52.9323C32.7021 52.207 33.5943 51.8001 34.5229 51.8001H41.5331C46.1945 51.8001 50 48.1203 50 43.5736V8.22645C50 3.69748 46.2127 0 41.5331 0H8.46686C3.78733 0 0 3.67979 0 8.22645ZM30.681 8.24414V20.5219H19.319V8.24414H8.48507V43.5559H19.319V28.8368H30.6992V43.5559H41.5331V8.24414H30.681Z" fill="#006FA7"/>
<path d="M0 8.22737V43.5746C0 47.6966 3.11362 51.111 7.19228 51.6949C9.24982 49.2004 11.0342 46.4582 12.4909 43.5569H8.46686V8.24507H13.6016C12.3634 5.326 10.8157 2.56616 8.9949 0.0186182H8.44865C3.78733 0.000926925 0 3.68071 0 8.22737Z" fill="#5FB669"/>
<path d="M182.252 12.8913H180.501V17.0569H179.13V11.73H182.252V12.8913Z" fill="#006FA7"/>
<path d="M182.628 11.73H183.653L183.791 12.3373H183.826C184.003 12.0816 184.198 11.8969 184.413 11.7833C184.636 11.6625 184.909 11.6022 185.232 11.6022C185.815 11.6022 186.253 11.8082 186.545 12.2201C186.845 12.6249 186.994 13.3032 186.994 14.255C186.994 15.2067 186.81 15.9383 186.441 16.4497C186.073 16.954 185.539 17.2061 184.84 17.2061C184.655 17.2061 184.498 17.1919 184.367 17.1635C184.237 17.1351 184.114 17.0889 183.999 17.025V19.1877H182.628V11.73ZM183.999 15.8637C184.076 15.9347 184.16 15.988 184.252 16.0235C184.352 16.059 184.479 16.0768 184.632 16.0768C184.94 16.0768 185.174 15.9383 185.335 15.6613C185.497 15.3772 185.577 14.8978 185.577 14.223C185.577 13.7187 185.516 13.3459 185.393 13.1044C185.27 12.8558 185.066 12.7315 184.782 12.7315C184.398 12.7315 184.137 12.941 183.999 13.3601V15.8637Z" fill="#006FA7"/>
<path d="M189.512 14.7238L189.662 15.5548H189.719L189.823 14.7131L190.491 11.73H191.897L190.457 16.5349C190.326 16.954 190.203 17.3304 190.088 17.6642C189.973 17.998 189.85 18.2821 189.719 18.5165C189.589 18.7509 189.439 18.9285 189.27 19.0492C189.109 19.1771 188.913 19.241 188.682 19.241C188.521 19.241 188.364 19.2268 188.21 19.1984C188.064 19.1771 187.937 19.138 187.83 19.0812L188.06 17.9945C188.16 18.03 188.26 18.0442 188.36 18.0371C188.467 18.0371 188.563 18.0016 188.648 17.9306C188.74 17.8666 188.821 17.7636 188.89 17.6216C188.959 17.4795 189.016 17.2913 189.063 17.0569L187.058 11.73H188.705L189.512 14.7238Z" fill="#006FA7"/>
<path d="M194.989 12.8913H193.653V17.0569H192.282V11.73H196.36V17.0569H194.989V12.8913Z" fill="#006FA7"/>
<path d="M200.064 12.8913H198.727V17.0569H197.356V11.73H201.435V17.0569H200.064V12.8913Z" fill="#006FA7"/>
<path d="M202.442 12.0496C202.673 11.9218 202.961 11.8188 203.306 11.7407C203.652 11.6625 204.044 11.6235 204.481 11.6235C205.134 11.6235 205.588 11.7797 205.841 12.0923C206.102 12.4048 206.233 12.8487 206.233 13.424C206.233 13.7578 206.221 14.0881 206.198 14.4148C206.183 14.7344 206.171 15.0505 206.164 15.363C206.156 15.6684 206.16 15.9667 206.175 16.2579C206.198 16.542 206.252 16.8119 206.336 17.0676H205.219L205 16.4177H204.954C204.831 16.6237 204.658 16.7941 204.435 16.9291C204.213 17.064 203.932 17.1315 203.594 17.1315C203.141 17.1315 202.784 16.993 202.523 16.716C202.262 16.4319 202.131 16.0555 202.131 15.5867C202.131 14.9475 202.377 14.4929 202.868 14.223C203.36 13.9531 204.024 13.8395 204.862 13.8821C204.9 13.4701 204.869 13.1718 204.77 12.9872C204.677 12.8025 204.474 12.7102 204.159 12.7102C203.928 12.7102 203.69 12.735 203.445 12.7848C203.199 12.8345 202.98 12.9055 202.788 12.9978L202.442 12.0496ZM204.09 16.0448C204.297 16.0448 204.466 15.9987 204.597 15.9063C204.727 15.8069 204.823 15.7004 204.885 15.5867V14.7024C204.708 14.6811 204.539 14.6776 204.378 14.6918C204.216 14.706 204.074 14.738 203.951 14.7877C203.829 14.8374 203.729 14.912 203.652 15.0114C203.583 15.1037 203.548 15.2245 203.548 15.3736C203.548 15.5938 203.594 15.7607 203.686 15.8744C203.786 15.988 203.921 16.0448 204.09 16.0448Z" fill="#006FA7"/>
<path d="M211.235 14.8516H210.924V17.0569H209.553V11.73H210.924V13.9993L211.201 13.8501L212.168 11.73H213.643L212.595 13.7756L212.088 14.1911L212.641 14.6066L213.804 17.0569H212.261L211.235 14.8516Z" fill="#006FA7"/>
<path d="M213.936 14.3935C213.936 13.4488 214.136 12.7457 214.535 12.284C214.935 11.8224 215.492 11.5915 216.206 11.5915C216.974 11.5915 217.546 11.8259 217.923 12.2947C218.299 12.7634 218.487 13.463 218.487 14.3935C218.487 15.3452 218.288 16.0519 217.888 16.5136C217.489 16.9682 216.928 17.1954 216.206 17.1954C214.693 17.1954 213.936 16.2615 213.936 14.3935ZM215.353 14.3935C215.353 14.9262 215.419 15.3381 215.549 15.6293C215.68 15.9205 215.899 16.0661 216.206 16.0661C216.498 16.0661 216.713 15.9418 216.851 15.6933C216.997 15.4376 217.07 15.0043 217.07 14.3935C217.07 13.8466 217.005 13.4311 216.874 13.147C216.744 12.8629 216.521 12.7208 216.206 12.7208C215.937 12.7208 215.726 12.8487 215.572 13.1044C215.426 13.353 215.353 13.7827 215.353 14.3935Z" fill="#006FA7"/>
<path d="M223.376 14.6066L223.457 13.5092H223.399L223.054 14.5L222.212 16.0981H221.694L220.772 14.5L220.415 13.5092H220.346L220.496 14.6066V17.0569H219.274V11.73H220.715L221.763 13.6903L221.994 14.4041H222.04L222.282 13.669L223.249 11.73H224.678V17.0569H223.376V14.6066Z" fill="#006FA7"/>
<path d="M228.373 12.8913H227.036V17.0569H225.665V11.73H229.744V17.0569H228.373V12.8913Z" fill="#006FA7"/>
<path d="M230.751 12.0496C230.982 11.9218 231.27 11.8188 231.616 11.7407C231.961 11.6625 232.353 11.6235 232.791 11.6235C233.444 11.6235 233.897 11.7797 234.15 12.0923C234.411 12.4048 234.542 12.8487 234.542 13.424C234.542 13.7578 234.531 14.0881 234.508 14.4148C234.492 14.7344 234.481 15.0505 234.473 15.363C234.465 15.6684 234.469 15.9667 234.484 16.2579C234.508 16.542 234.561 16.8119 234.646 17.0676H233.528L233.309 16.4177H233.263C233.14 16.6237 232.967 16.7941 232.745 16.9291C232.522 17.064 232.242 17.1315 231.904 17.1315C231.45 17.1315 231.093 16.993 230.832 16.716C230.571 16.4319 230.44 16.0555 230.44 15.5867C230.44 14.9475 230.686 14.4929 231.178 14.223C231.669 13.9531 232.334 13.8395 233.171 13.8821C233.209 13.4701 233.179 13.1718 233.079 12.9872C232.987 12.8025 232.783 12.7102 232.468 12.7102C232.238 12.7102 232 12.735 231.754 12.7848C231.508 12.8345 231.289 12.9055 231.097 12.9978L230.751 12.0496ZM232.399 16.0448C232.606 16.0448 232.775 15.9987 232.906 15.9063C233.037 15.8069 233.133 15.7004 233.194 15.5867V14.7024C233.017 14.6811 232.848 14.6776 232.687 14.6918C232.526 14.706 232.384 14.738 232.261 14.7877C232.138 14.8374 232.038 14.912 231.961 15.0114C231.892 15.1037 231.858 15.2245 231.858 15.3736C231.858 15.5938 231.904 15.7607 231.996 15.8744C232.096 15.988 232.23 16.0448 232.399 16.0448Z" fill="#006FA7"/>
<path d="M238.253 14.9368H236.87V17.0569H235.499V11.73H236.87V13.7756H238.253V11.73H239.624V17.0569H238.253V14.9368Z" fill="#006FA7"/>
<path d="M243.442 14.7344L243.545 13.8714H243.511L243.085 14.777L241.541 17.0569H240.619V11.73H241.99V14.1484L241.886 14.9794H241.921L242.336 14.0952L243.891 11.73H244.813V17.0569H243.442V14.7344Z" fill="#006FA7"/>
<path d="M248.629 14.7344L248.732 13.8714H248.698L248.272 14.777L246.728 17.0569H245.806V11.73H247.177V14.1484L247.073 14.9794H247.108L247.523 14.0952L249.078 11.73H250V17.0569H248.629V14.7344ZM247.454 9.55664C247.477 9.82654 247.538 10.0219 247.638 10.1426C247.738 10.2633 247.864 10.3237 248.018 10.3237C248.179 10.3237 248.306 10.2669 248.398 10.1533C248.498 10.0325 248.567 9.83719 248.606 9.56729L249.643 9.80168C249.558 10.2847 249.362 10.6398 249.055 10.8671C248.756 11.0872 248.398 11.1973 247.984 11.1973C247.784 11.1973 247.588 11.1725 247.396 11.1228C247.204 11.073 247.031 10.9949 246.877 10.8884C246.724 10.7747 246.593 10.6291 246.486 10.4516C246.386 10.274 246.321 10.0538 246.29 9.79103L247.454 9.55664Z" fill="#006FA7"/>
<path d="M64.4696 32.365H63.6741V41.4195H59.9619V20.2924H63.6741V29.6789L64.4106 29.3167L68.7415 20.2924H72.9251L68.2112 29.196L66.8265 30.3127L68.2407 31.4596L73.6911 41.4195H69.154L64.4696 32.365Z" fill="#5FB669"/>
<path d="M79.319 34.8097L79.702 37.1639H79.8493L80.1144 34.7796L81.8232 26.3287H85.4175L81.7348 39.9406C81.4009 41.1277 81.0867 42.1941 80.792 43.1398C80.4974 44.0855 80.1832 44.8904 79.8493 45.5543C79.5154 46.2183 79.1324 46.7214 78.7003 47.0634C78.2878 47.4256 77.787 47.6067 77.1977 47.6067C76.7853 47.6067 76.3826 47.5664 75.9898 47.486C75.6166 47.4256 75.2925 47.3149 75.0176 47.154L75.6068 44.0755C75.8621 44.1761 76.1175 44.2163 76.3728 44.1962C76.6478 44.1962 76.8933 44.0956 77.1093 43.8944C77.345 43.7133 77.5513 43.4215 77.728 43.0191C77.9048 42.6167 78.0521 42.0835 78.17 41.4195L73.0436 26.3287H77.2566L79.319 34.8097Z" fill="#5FB669"/>
<path d="M88.7582 29.0451C89.21 28.1799 89.7501 27.5561 90.3786 27.1738C91.0268 26.7915 91.7928 26.6004 92.6766 26.6004C94.1301 26.6004 95.2987 27.1537 96.1826 28.2604C97.0664 29.3469 97.5084 31.1075 97.5084 33.5421C97.5084 36.3591 97.0075 38.4516 96.0058 39.8199C95.0238 41.168 93.6096 41.842 91.7633 41.842C90.8205 41.842 89.976 41.6609 89.2296 41.2988C88.5029 40.9366 87.8842 40.3732 87.3735 39.6086C86.8825 38.844 86.5093 37.8581 86.254 36.6508C85.9986 35.4234 85.871 33.9647 85.871 32.2745C85.871 30.5441 85.9495 29.0652 86.1067 27.8378C86.2834 26.6104 86.5191 25.5742 86.8137 24.7291C87.128 23.884 87.4914 23.21 87.9038 22.707C88.3359 22.2039 88.8073 21.8116 89.318 21.5299C89.8287 21.2281 90.3786 21.0168 90.9679 20.8961C91.5571 20.7753 92.1758 20.6747 92.8239 20.5943C93.6685 20.4936 94.4149 20.3729 95.063 20.2321C95.7112 20.0711 96.1826 19.8196 96.4772 19.4775L96.5361 22.8579C96.2219 23.1999 95.7505 23.4514 95.122 23.6124C94.5131 23.7533 93.7078 23.8639 92.7061 23.9444C92.0972 24.0048 91.5571 24.1255 91.0857 24.3066C90.634 24.4675 90.2411 24.7392 89.9072 25.1215C89.593 25.4837 89.3278 25.9867 89.1118 26.6306C88.9154 27.2543 88.768 28.0591 88.6698 29.0451H88.7582ZM89.4948 34.0552C89.4948 35.5039 89.6715 36.6307 90.0251 37.4355C90.3786 38.2404 90.9286 38.6428 91.6749 38.6428C92.4606 38.6428 93.0204 38.2806 93.3543 37.5562C93.7078 36.8319 93.8846 35.6649 93.8846 34.0552C93.8846 32.6668 93.7274 31.6105 93.4132 30.8861C93.0989 30.1618 92.5686 29.7996 91.8222 29.7996C91.017 29.7996 90.4277 30.1618 90.0545 30.8861C89.6814 31.6105 89.4948 32.6668 89.4948 34.0552Z" fill="#5FB669"/>
<path d="M99.5504 27.2342C100.14 26.872 100.876 26.5802 101.76 26.3589C102.644 26.1376 103.646 26.0269 104.765 26.0269C106.435 26.0269 107.593 26.4696 108.242 27.3549C108.909 28.2402 109.243 29.4978 109.243 31.1276C109.243 32.0733 109.214 33.0089 109.155 33.9345C109.116 34.8399 109.086 35.7353 109.067 36.6206C109.047 37.4858 109.057 38.3309 109.096 39.1559C109.155 39.9607 109.292 40.7253 109.508 41.4497H106.651L106.091 39.6086H105.973C105.659 40.1921 105.217 40.675 104.647 41.0573C104.078 41.4396 103.361 41.6308 102.497 41.6308C101.338 41.6308 100.424 41.2384 99.7567 40.4537C99.0889 39.6488 98.755 38.5824 98.755 37.2544C98.755 35.4435 99.3835 34.1558 100.641 33.3912C101.898 32.6266 103.597 32.3047 105.737 32.4254C105.836 31.2584 105.757 30.4133 105.502 29.8902C105.266 29.367 104.746 29.1054 103.94 29.1054C103.351 29.1054 102.742 29.1759 102.114 29.3167C101.485 29.4576 100.925 29.6588 100.434 29.9203L99.5504 27.2342ZM103.763 38.5522C104.294 38.5522 104.726 38.4215 105.06 38.1599C105.394 37.8782 105.639 37.5764 105.796 37.2544V34.7494C105.345 34.689 104.912 34.6789 104.5 34.7192C104.088 34.7594 103.724 34.85 103.41 34.9908C103.096 35.1317 102.84 35.3429 102.644 35.6246C102.467 35.8862 102.379 36.2283 102.379 36.6508C102.379 37.2746 102.497 37.7474 102.732 38.0693C102.988 38.3913 103.331 38.5522 103.763 38.5522Z" fill="#5FB669"/>
<path d="M118.733 35.4134H115.197V41.4195H111.691V26.3287H115.197V32.1236H118.733V26.3287H122.238V41.4195H118.733V35.4134Z" fill="#5FB669"/>
<path d="M128.288 38.2504C128.701 38.3712 129.133 38.4315 129.584 38.4315C130.272 38.4315 130.763 38.2705 131.057 37.9486C131.372 37.6267 131.529 37.0834 131.529 36.3188C131.529 35.6347 131.382 35.1115 131.087 34.7494C130.792 34.3872 130.311 34.2061 129.643 34.2061C129.133 34.2061 128.681 34.2765 128.288 34.4174V38.2504ZM128.288 31.701C128.681 31.6206 129.084 31.5703 129.496 31.5501C129.908 31.5099 130.282 31.4898 130.616 31.4898C131.44 31.4898 132.138 31.6105 132.707 31.8519C133.297 32.0733 133.768 32.3952 134.121 32.8178C134.495 33.2403 134.76 33.7433 134.917 34.3268C135.074 34.8902 135.153 35.5039 135.153 36.1679C135.153 37.0733 135.045 37.8681 134.829 38.5522C134.632 39.2364 134.308 39.8098 133.856 40.2726C133.405 40.7152 132.806 41.0573 132.059 41.2988C131.313 41.5201 130.399 41.6308 129.319 41.6308C128.298 41.6308 127.424 41.6106 126.697 41.5704C125.97 41.5301 125.332 41.4798 124.782 41.4195V26.3287H128.288V31.701Z" fill="#5FB669"/>
<path d="M146.779 32.683H141.272V41.5799H137.639V20.54H141.272V29.1964H146.779V20.54H150.411V41.5799H146.779V32.683Z" fill="#006FA7"/>
<path d="M152.435 34.0657C152.435 31.4006 152.935 29.4169 153.934 28.1144C154.934 26.8119 156.327 26.1607 158.115 26.1607C160.037 26.1607 161.469 26.8219 162.41 28.1444C163.352 29.467 163.823 31.4407 163.823 34.0657C163.823 36.7508 163.323 38.7445 162.324 40.047C161.325 41.3294 159.921 41.9706 158.115 41.9706C154.328 41.9706 152.435 39.3356 152.435 34.0657ZM155.981 34.0657C155.981 35.5685 156.145 36.7307 156.471 37.5523C156.798 38.3738 157.346 38.7846 158.115 38.7846C158.845 38.7846 159.383 38.4339 159.729 37.7326C160.094 37.0112 160.277 35.7889 160.277 34.0657C160.277 32.5227 160.114 31.3505 159.787 30.549C159.46 29.7475 158.903 29.3467 158.115 29.3467C157.442 29.3467 156.914 29.7074 156.529 30.4288C156.164 31.1301 155.981 32.3424 155.981 34.0657Z" fill="#006FA7"/>
<path d="M165.793 26.5815C166.331 26.5214 167.013 26.4713 167.84 26.4312C168.685 26.3711 169.56 26.341 170.463 26.341C172.27 26.341 173.548 26.6516 174.298 27.2728C175.047 27.894 175.422 28.8358 175.422 30.0981C175.422 30.8195 175.259 31.5108 174.932 32.1721C174.605 32.8133 174.105 33.2842 173.433 33.5848V33.705C175.066 34.1659 175.883 35.3681 175.883 37.3118C175.883 38.8147 175.422 39.9368 174.499 40.6782C173.577 41.4196 172.078 41.7903 170.002 41.7903C169.329 41.7903 168.589 41.7703 167.782 41.7302C166.994 41.6901 166.331 41.63 165.793 41.5498V26.5815ZM169.137 38.6944C169.329 38.7345 169.512 38.7646 169.685 38.7846C169.858 38.7846 170.069 38.7846 170.319 38.7846C171.069 38.7846 171.607 38.6343 171.933 38.3337C172.279 38.0131 172.452 37.5222 172.452 36.861C172.452 36.3199 172.308 35.8891 172.02 35.5685C171.732 35.2279 171.242 35.0575 170.55 35.0575H169.137V38.6944ZM170.55 32.683C171.011 32.683 171.386 32.5328 171.674 32.2322C171.982 31.9316 172.135 31.5309 172.135 31.0299C172.135 30.4488 172.01 30.028 171.761 29.7675C171.53 29.487 171.088 29.3467 170.434 29.3467C170.108 29.3467 169.848 29.3567 169.656 29.3768C169.464 29.3768 169.291 29.3868 169.137 29.4068V32.683H170.55Z" fill="#006FA7"/>
<path d="M177.324 34.0657C177.324 31.4006 177.824 29.4169 178.823 28.1144C179.822 26.8119 181.216 26.1607 183.003 26.1607C184.925 26.1607 186.357 26.8219 187.299 28.1444C188.241 29.467 188.712 31.4407 188.712 34.0657C188.712 36.7508 188.212 38.7445 187.213 40.047C186.213 41.3294 184.81 41.9706 183.003 41.9706C179.217 41.9706 177.324 39.3356 177.324 34.0657ZM180.87 34.0657C180.87 35.5685 181.033 36.7307 181.36 37.5523C181.687 38.3738 182.235 38.7846 183.003 38.7846C183.734 38.7846 184.272 38.4339 184.618 37.7326C184.983 37.0112 185.166 35.7889 185.166 34.0657C185.166 32.5227 185.002 31.3505 184.676 30.549C184.349 29.7475 183.791 29.3467 183.003 29.3467C182.331 29.3467 181.802 29.7074 181.418 30.4288C181.053 31.1301 180.87 32.3424 180.87 34.0657Z" fill="#006FA7"/>
<path d="M199.186 40.7684C198.706 41.1691 198.129 41.4697 197.456 41.6701C196.784 41.8705 196.111 41.9706 195.438 41.9706C194.458 41.9706 193.632 41.7903 192.959 41.4296C192.305 41.0489 191.767 40.5179 191.344 39.8366C190.922 39.1353 190.614 38.3037 190.422 37.3419C190.249 36.36 190.162 35.2679 190.162 34.0657C190.162 31.4407 190.614 29.467 191.517 28.1444C192.421 26.8219 193.747 26.1607 195.496 26.1607C196.361 26.1607 197.062 26.2408 197.601 26.4011C198.158 26.5614 198.648 26.7618 199.071 27.0023L198.264 29.9779C197.918 29.7976 197.581 29.6673 197.255 29.5872C196.947 29.487 196.572 29.4369 196.13 29.4369C195.323 29.4369 194.718 29.8076 194.314 30.549C193.91 31.2704 193.708 32.4426 193.708 34.0657C193.708 35.4282 193.91 36.5404 194.314 37.402C194.737 38.2636 195.4 38.6944 196.303 38.6944C196.784 38.6944 197.187 38.6343 197.514 38.5141C197.86 38.3738 198.177 38.2035 198.465 38.0031L199.186 40.7684Z" fill="#006FA7"/>
<path d="M209.439 29.8276H206.267V41.5799H202.836V29.8276H199.55V26.5514H209.439V29.8276Z" fill="#006FA7"/>
<path d="M210.699 26.5514H213.265L213.611 28.2647H213.698C214.14 27.5433 214.63 27.0223 215.168 26.7017C215.725 26.3611 216.408 26.1907 217.215 26.1907C218.676 26.1907 219.771 26.7718 220.501 27.934C221.251 29.0762 221.626 30.9898 221.626 33.6749C221.626 36.36 221.165 38.4239 220.242 39.8667C219.319 41.2894 217.984 42.0007 216.235 42.0007C215.773 42.0007 215.379 41.9606 215.053 41.8805C214.726 41.8003 214.418 41.6701 214.13 41.4897V47.5913H210.699V26.5514ZM214.13 38.2135C214.322 38.4139 214.534 38.5642 214.764 38.6644C215.014 38.7646 215.331 38.8147 215.716 38.8147C216.484 38.8147 217.071 38.4239 217.474 37.6424C217.878 36.8409 218.08 35.4884 218.08 33.5848C218.08 32.1621 217.926 31.1101 217.618 30.4288C217.311 29.7274 216.802 29.3768 216.09 29.3768C215.129 29.3768 214.476 29.9679 214.13 31.1501V38.2135Z" fill="#006FA7"/>
<path d="M223.075 34.0657C223.075 31.4006 223.575 29.4169 224.574 28.1144C225.574 26.8119 226.967 26.1607 228.755 26.1607C230.677 26.1607 232.109 26.8219 233.05 28.1444C233.992 29.467 234.463 31.4407 234.463 34.0657C234.463 36.7508 233.963 38.7445 232.964 40.047C231.964 41.3294 230.561 41.9706 228.755 41.9706C224.968 41.9706 223.075 39.3356 223.075 34.0657ZM226.621 34.0657C226.621 35.5685 226.785 36.7307 227.111 37.5523C227.438 38.3738 227.986 38.7846 228.755 38.7846C229.485 38.7846 230.023 38.4339 230.369 37.7326C230.734 37.0112 230.917 35.7889 230.917 34.0657C230.917 32.5227 230.754 31.3505 230.427 30.549C230.1 29.7475 229.543 29.3467 228.755 29.3467C228.082 29.3467 227.553 29.7074 227.169 30.4288C226.804 31.1301 226.621 32.3424 226.621 34.0657Z" fill="#006FA7"/>
<path d="M243.496 35.0275L243.755 32.5929H243.669L242.602 35.1477L238.739 41.5799H236.432V26.5514H239.863V33.3744L239.604 35.7188H239.69L240.728 33.2241L244.62 26.5514H246.927V41.5799H243.496V35.0275Z" fill="#006FA7"/>
<path fill-rule="evenodd" clip-rule="evenodd" d="M241.113 23.5108L241.093 23.4744C241.014 23.365 240.916 23.2556 240.817 23.1645C240.758 23.1098 240.699 23.0551 240.64 23.0186C240.62 23.0004 240.6 23.0004 240.6 22.9822C240.58 22.9639 240.561 22.9457 240.521 22.9457L240.304 22.8546C240.107 22.7816 239.831 22.7634 239.614 22.8181C239.536 22.8363 239.437 22.8546 239.378 22.891C239.26 22.9457 239.2 22.9822 239.102 23.0551C239.062 23.0733 239.043 23.1098 239.023 23.128C238.984 23.1827 238.944 23.2374 238.905 23.2921C238.846 23.4197 238.846 23.5655 238.885 23.6931C238.944 23.839 239.062 23.9484 239.24 24.0395C239.26 24.0578 239.279 24.0578 239.299 24.0578C239.319 24.0578 239.319 24.076 239.338 24.076C239.693 24.2218 240.147 24.2218 240.462 24.0395L240.502 24.0031C240.502 24.0031 240.502 24.0031 240.521 24.0031L240.64 23.9301C240.837 23.7661 240.955 23.6931 241.113 23.5108ZM242.414 23.4379C242.473 23.5291 242.552 23.602 242.631 23.6931C242.71 23.7661 242.769 23.839 242.848 23.9119C242.907 23.9666 242.986 24.0213 243.084 24.0578C243.262 24.1489 243.498 24.2036 243.735 24.1854C243.912 24.1671 244.09 24.1307 244.228 24.0578C244.287 24.0213 244.366 23.9848 244.405 23.9484C244.484 23.8755 244.563 23.8025 244.602 23.7296C244.622 23.6932 244.622 23.6749 244.642 23.6385C244.662 23.5473 244.662 23.4926 244.662 23.4197C244.642 23.3285 244.602 23.2374 244.543 23.1645C244.464 23.0733 244.346 22.9822 244.208 22.9275C243.991 22.8363 243.656 22.7816 243.38 22.8363C242.907 22.9092 242.67 23.2009 242.414 23.4379ZM241.744 24.2583C241.724 24.2765 241.704 24.2947 241.704 24.2947L241.389 24.55L241.152 24.6958C240.975 24.787 240.797 24.8599 240.6 24.8964C240.521 24.9146 240.442 24.9328 240.364 24.9328C239.95 24.9875 239.575 24.9693 239.181 24.8781C239.043 24.8417 238.924 24.8052 238.806 24.7505C238.648 24.6776 238.51 24.6047 238.372 24.5317H238.353L238.215 24.4406C237.86 24.1489 237.702 23.8208 237.702 23.4379C237.702 23.2739 237.741 23.128 237.82 22.9639C237.919 22.7634 238.096 22.5811 238.293 22.417C238.431 22.3259 238.609 22.2165 238.786 22.1618C238.865 22.1253 238.964 22.0889 239.043 22.0707C239.338 21.9977 239.595 21.9613 239.93 21.9613C240.502 21.9613 241.034 22.1253 241.428 22.3988L241.547 22.4899C241.566 22.5082 241.586 22.5082 241.586 22.5264C241.645 22.5629 241.685 22.6176 241.724 22.654C241.783 22.5993 241.823 22.5446 241.882 22.5082L241.961 22.4535C242.099 22.3623 242.237 22.2712 242.394 22.1983C242.887 21.9613 243.538 21.9066 244.11 21.9977C244.307 22.0342 244.504 22.0889 244.681 22.1618C244.74 22.18 244.78 22.1983 244.839 22.2347H244.859L245.115 22.3806C245.135 22.3988 245.154 22.3988 245.174 22.417L245.233 22.4535L245.253 22.4717C245.411 22.6176 245.568 22.7634 245.647 22.9457C245.726 23.1098 245.766 23.2739 245.766 23.4379C245.766 23.839 245.529 24.2218 245.115 24.4953L245.016 24.5682C245.016 24.5682 244.997 24.5682 244.997 24.5864C244.938 24.6229 244.898 24.6411 244.839 24.6776C244.8 24.6958 244.78 24.714 244.74 24.714C244.622 24.7505 244.524 24.8052 244.386 24.8417C244.208 24.8963 244.031 24.9328 243.853 24.9328C243.498 24.951 243.124 24.951 242.808 24.8599C242.69 24.8234 242.572 24.787 242.453 24.7505C242.335 24.6958 242.217 24.6411 242.118 24.5682C242.099 24.5682 242.099 24.55 242.079 24.55C242.059 24.5317 242.039 24.5317 242.02 24.5135C242 24.4953 241.98 24.4771 241.941 24.4588C241.921 24.4588 241.921 24.4406 241.921 24.4406C241.842 24.3859 241.783 24.3312 241.724 24.2583H241.744Z" fill="#5FB669"/>
</svg>
