<svg width="50" height="60" viewBox="0 0 50 60" fill="none" xmlns="http://www.w3.org/2000/svg">
<path fill-rule="evenodd" clip-rule="evenodd" d="M0 8.22645V43.5736C0 48.1203 3.78733 51.8001 8.46686 51.8001H15.4588C16.3875 51.8001 17.2797 52.2247 17.8441 52.9323L22.5965 58.8589C23.8165 60.3804 26.1653 60.3804 27.3853 58.8589L32.1376 52.9323C32.7021 52.207 33.5943 51.8001 34.5229 51.8001H41.5331C46.1945 51.8001 50 48.1203 50 43.5736V8.22645C50 3.69748 46.2127 0 41.5331 0H8.46686C3.78733 0 0 3.67979 0 8.22645ZM30.681 8.24414V20.5219H19.319V8.24414H8.48507V43.5559H19.319V28.8368H30.6992V43.5559H41.5331V8.24414H30.681Z" fill="#006FA7"/>
<path d="M0 8.2264V43.5736C0 47.6957 3.11362 51.1101 7.19228 51.6939C9.24982 49.1994 11.0342 46.4573 12.4909 43.5559H8.46686V8.24409H13.6016C12.3634 5.32503 10.8157 2.56519 8.9949 0.0176416H8.44865C3.78733 -4.96376e-05 0 3.67974 0 8.2264Z" fill="#5FB669"/>
</svg>
