<svg width="24" height="24" viewBox="0 0 24 24" fill="none" xmlns="http://www.w3.org/2000/svg">
<path d="M13.7897 8H4.35579C3.31522 8 2.46899 8.897 2.46899 10V20C2.46899 21.103 3.31522 22 4.35579 22H13.7897C14.8303 22 15.6765 21.103 15.6765 20V10C15.6765 8.897 14.8303 8 13.7897 8Z" fill="#006FA7"/>
<path d="M19.4501 2H10.0162C9.51578 2 9.03587 2.21071 8.68202 2.58579C8.32818 2.96086 8.12939 3.46957 8.12939 4V6H15.6766C16.177 6 16.6569 6.21071 17.0107 6.58579C17.3646 6.96086 17.5634 7.46957 17.5634 8V16H19.4501C19.9506 16 20.4305 15.7893 20.7843 15.4142C21.1382 15.0391 21.3369 14.5304 21.3369 14V4C21.3369 3.46957 21.1382 2.96086 20.7843 2.58579C20.4305 2.21071 19.9506 2 19.4501 2Z" fill="#006FA7"/>
</svg>
