<svg width="24" height="24" viewBox="0 0 24 24" fill="none" xmlns="http://www.w3.org/2000/svg">
<path d="M20.71 7.03957C20.37 7.37957 20.04 7.70957 20.03 8.03957C20 8.35957 20.34 8.68957 20.66 8.99957C21.14 9.49957 21.61 9.94957 21.59 10.4396C21.57 10.9296 21.06 11.4396 20.55 11.9396L16.42 16.0796L15 14.6596L19.25 10.4196L18.29 9.45957L16.87 10.8696L13.12 7.11957L16.96 3.28957C17.35 2.89957 18 2.89957 18.37 3.28957L20.71 5.62957C21.1 5.99957 21.1 6.64957 20.71 7.03957ZM3 17.2496L12.56 7.67957L16.31 11.4296L6.75 20.9996H3V17.2496Z" fill="#5FB669"/>
</svg>
