<svg width="40" height="40" viewBox="0 0 40 40" fill="none" xmlns="http://www.w3.org/2000/svg">
<path d="M3.6394 32.4252C3.6394 32.0519 3.6394 31.6785 3.6394 31.3052C3.65274 31.2385 3.69274 31.1852 3.69274 31.1185C3.9194 29.6119 4.69274 28.4385 5.98607 27.6519C6.46607 27.3585 7.02607 27.1719 7.58607 26.9185C7.58607 26.6652 7.58607 26.3719 7.58607 26.0785C7.58607 24.2119 8.85274 22.9585 10.7194 22.9585C13.5061 22.9585 16.2794 22.9585 19.0661 22.9585C19.1994 22.9585 19.3194 22.9585 19.4661 22.9585C19.4661 22.2519 19.4661 21.5852 19.4661 20.9052C19.4127 20.8919 19.3727 20.8785 19.3327 20.8652C14.4794 20.1719 11.1327 16.0119 11.6794 11.1585C12.0794 7.53187 14.1061 5.03854 17.5061 3.71854C18.2127 3.43854 19.0127 3.35854 19.7594 3.17188C20.2394 3.17188 20.7194 3.17188 21.1994 3.17188C21.4394 3.21188 21.6661 3.25188 21.9061 3.29188C25.7594 3.90521 28.9861 7.19854 29.3194 11.4119C29.6261 15.1985 27.4394 18.8519 23.7327 20.3052C23.0127 20.5852 22.2527 20.7319 21.4794 20.9585C21.4794 21.5719 21.4794 22.2519 21.4794 22.9585C21.6261 22.9585 21.7461 22.9585 21.8794 22.9585C24.7061 22.9585 27.5327 22.9585 30.3594 22.9585C32.0661 22.9585 33.3461 24.2519 33.3727 25.9452C33.3727 26.2919 33.3727 26.6385 33.3727 26.9852C33.4927 27.0252 33.5861 27.0519 33.6794 27.0785C35.2927 27.5585 36.3994 28.5719 36.9994 30.1319C37.1461 30.5052 37.2127 30.9052 37.3061 31.3052C37.3061 31.6785 37.3061 32.0519 37.3061 32.4252C37.2794 32.4785 37.2527 32.5452 37.2394 32.5985C36.9194 34.3585 35.9594 35.6385 34.3327 36.3985C33.8794 36.6119 33.3727 36.6919 32.8927 36.8252C32.5461 36.8252 32.1861 36.8252 31.8394 36.8252C31.7727 36.7985 31.6927 36.7719 31.6261 36.7585C29.6527 36.4519 27.9994 34.9052 27.5727 32.9452C27.1194 30.9185 27.9194 28.8652 29.6261 27.7585C30.1594 27.4119 30.7727 27.1985 31.3861 26.8919C31.3861 26.6652 31.3861 26.3719 31.3861 26.0785C31.3861 25.3052 31.0127 24.9185 30.2394 24.9185C27.4261 24.9185 24.6127 24.9185 21.7861 24.9185C21.6794 24.9185 21.5727 24.9319 21.4661 24.9319C21.4661 25.6385 21.4661 26.3052 21.4661 26.9852C21.5194 26.9985 21.5594 27.0119 21.5994 27.0252C23.7194 27.5852 25.1861 29.2785 25.3727 31.4385C25.5594 33.4919 24.3594 35.5185 22.4127 36.3852C21.9594 36.5852 21.4527 36.6785 20.9727 36.8119C20.6261 36.8119 20.2661 36.8119 19.9194 36.8119C19.8527 36.7852 19.7727 36.7585 19.7061 36.7452C17.7327 36.4385 16.0794 34.8919 15.6527 32.9319C15.1994 30.9052 15.9994 28.8519 17.7061 27.7452C18.2394 27.3985 18.8527 27.1852 19.4527 26.8919C19.4527 26.2785 19.4527 25.5985 19.4527 24.9052C19.3061 24.9052 19.1861 24.9052 19.0794 24.9052C17.5061 24.9052 15.9461 24.9052 14.3727 24.9052C13.1194 24.9052 11.8527 24.9052 10.5994 24.9052C10.0394 24.9052 9.61274 25.2519 9.57274 25.7585C9.53274 26.1585 9.5594 26.5585 9.5594 26.9719C9.62607 26.9852 9.66607 26.9985 9.70607 27.0119C11.8261 27.5719 13.2927 29.2652 13.4794 31.4252C13.6661 33.4785 12.4661 35.5052 10.5194 36.3719C10.0661 36.5719 9.5594 36.6652 9.0794 36.7985C8.73274 36.7985 8.37274 36.7985 8.02607 36.7985C7.9594 36.7852 7.90607 36.7585 7.8394 36.7452C5.74607 36.3585 4.41274 35.1052 3.78607 33.0919C3.73274 32.8919 3.69274 32.6519 3.6394 32.4252ZM19.4794 16.8652C19.4794 17.2519 19.4661 17.6385 19.4794 18.0119C19.4927 18.5719 19.9061 18.9985 20.4527 19.0119C20.9994 19.0252 21.4394 18.5852 21.4527 18.0119C21.4661 17.7185 21.4661 17.4252 21.4527 17.1185C21.4394 16.9452 21.4927 16.8519 21.6661 16.7719C22.9861 16.1452 23.6394 14.8385 23.3594 13.4519C23.0927 12.1319 21.9327 11.1852 20.5061 11.1185C20.0261 11.0919 19.6927 10.8652 19.5461 10.4652C19.3994 10.0785 19.4927 9.73188 19.7727 9.43854C20.0661 9.13188 20.4927 9.05188 20.9194 9.26521C21.1594 9.38521 21.3727 9.55854 21.5861 9.73188C22.0261 10.0519 22.5994 10.0119 22.9461 9.61188C23.2794 9.22521 23.2661 8.65188 22.8927 8.27854C22.7061 8.09188 22.4927 7.93188 22.2794 7.78521C22.0127 7.59854 21.5994 7.50521 21.4794 7.25188C21.3327 6.98521 21.4527 6.58521 21.4394 6.25188C21.4261 5.65188 21.0127 5.21187 20.4394 5.21187C19.8927 5.21187 19.4794 5.65188 19.4661 6.23854C19.4661 6.61188 19.4661 6.98521 19.4661 7.35854C19.3727 7.39854 19.2794 7.45188 19.1861 7.49188C17.6394 8.21188 17.0261 10.0519 17.8527 11.5452C18.4127 12.5585 19.3061 13.0652 20.4527 13.1052C20.8794 13.1185 21.1861 13.3185 21.3594 13.7052C21.5327 14.0919 21.4527 14.4652 21.1594 14.7719C20.8661 15.0785 20.4794 15.1852 20.1061 14.9985C19.7727 14.8252 19.4661 14.5852 19.1861 14.3319C18.7327 13.9185 18.1594 13.8519 17.7461 14.2385C17.3327 14.6252 17.3327 15.2119 17.7327 15.6785C18.2261 16.2119 18.7861 16.6119 19.4794 16.8652Z" fill="#87B7FF"/>
</svg>
