<svg width="40" height="40" viewBox="0 0 40 40" fill="none" xmlns="http://www.w3.org/2000/svg">
<path d="M25.0246 30.0563C24.1042 30.0563 23.3582 29.3102 23.3582 28.3899C23.3582 27.4696 24.1042 26.7235 25.0246 26.7235H26.691C27.5665 26.7235 28.4334 26.551 29.2423 26.216C30.0511 25.881 30.7861 25.3899 31.4052 24.7708C32.0242 24.1517 32.5153 23.4168 32.8503 22.6079C33.1854 21.7991 33.3578 20.9321 33.3578 20.0566C33.3578 19.1811 33.1854 18.3142 32.8503 17.5054C32.5153 16.6965 32.0242 15.9615 31.4052 15.3425C30.7861 14.7234 30.0511 14.2323 29.2423 13.8973C28.4334 13.5622 27.5665 13.3898 26.691 13.3898H25.0246C24.1042 13.3898 23.3582 12.6437 23.3582 11.7234C23.3582 10.8031 24.1042 10.057 25.0246 10.057L26.691 10.057C29.329 10.0785 31.8516 11.1415 33.7094 13.0144C35.5671 14.8874 36.6096 17.4186 36.6096 20.0566C36.6096 22.6947 35.5671 25.2259 33.7094 27.0989C31.8516 28.9718 29.329 30.0348 26.691 30.0563H25.0246ZM16.6901 28.3899C16.6901 29.3102 15.9441 30.0563 15.0237 30.0563H13.3573C12.0373 30.0671 10.7282 29.8163 9.50555 29.3186C8.2829 28.8209 7.17089 28.0861 6.23366 27.1564C5.29644 26.2268 4.55255 25.1208 4.04489 23.9023C3.53724 22.6837 3.27588 21.3767 3.27588 20.0566C3.27588 18.7366 3.53724 17.4296 4.04489 16.211C4.55255 14.9924 5.29644 13.8865 6.23366 12.9568C7.17089 12.0272 8.2829 11.2924 9.50555 10.7946C10.7282 10.2969 12.0373 10.0462 13.3573 10.057L15.0237 10.057C15.9441 10.057 16.6901 10.8031 16.6901 11.7234C16.6901 12.6437 15.9441 13.3898 15.0237 13.3898H13.3573C12.4818 13.3898 11.6149 13.5622 10.806 13.8973C9.99717 14.2323 9.26222 14.7234 8.64315 15.3425C8.02408 15.9615 7.533 16.6965 7.19796 17.5054C6.86292 18.3142 6.69048 19.1811 6.69048 20.0566C6.69048 20.9321 6.86292 21.7991 7.19796 22.6079C7.533 23.4168 8.02408 24.1517 8.64315 24.7708C9.26222 25.3899 9.99717 25.881 10.806 26.216C11.6149 26.551 12.4818 26.7235 13.3573 26.7235H15.0237C15.9441 26.7235 16.6901 27.4696 16.6901 28.3899ZM26.6899 18.389C27.6108 18.389 28.3574 19.1356 28.3574 20.0566C28.3574 20.9776 27.6108 21.7242 26.6898 21.7241L13.3584 21.7232C12.438 21.7231 11.6918 20.9771 11.6915 20.0567C11.6912 19.1358 12.4376 18.389 13.3586 18.389H26.6899Z" fill="#87B7FF"/>
</svg>
