<svg width="40" height="40" viewBox="0 0 40 40" fill="none" xmlns="http://www.w3.org/2000/svg">
<rect opacity="0.01" x="40" y="40" width="40" height="40" transform="rotate(180 40 40)" fill="#5FB669"/>
<path d="M20 22.5C21.3807 22.5 22.5 21.3807 22.5 20C22.5 18.6193 21.3807 17.5 20 17.5C18.6193 17.5 17.5 18.6193 17.5 20C17.5 21.3807 18.6193 22.5 20 22.5Z" fill="#5FB669"/>
<path fill-rule="evenodd" clip-rule="evenodd" d="M32.0499 15.6173H33.8666C35.4157 15.6265 36.6666 16.8849 36.6666 18.434V21.6673C36.6586 23.169 35.4674 24.397 33.9666 24.4507H32.1499C31.9314 24.4691 31.7432 24.6119 31.6666 24.8173C31.5449 25.0049 31.5449 25.2464 31.6666 25.434L32.8833 26.6507C33.4095 27.1732 33.7054 27.8841 33.7054 28.6257C33.7054 29.3672 33.4095 30.0781 32.8833 30.6007L30.6499 32.834C30.1334 33.3654 29.4243 33.6659 28.6833 33.6673C27.939 33.6575 27.2278 33.3587 26.6999 32.834L25.4333 31.5507C25.2457 31.429 25.0041 31.429 24.8166 31.5507C24.5666 31.6507 24.3833 31.8173 24.3833 32.0507V33.8673C24.3741 35.4164 23.1157 36.6673 21.5666 36.6673H18.4166C16.9084 36.6683 15.6704 35.4745 15.6166 33.9673V32.1507C15.5982 31.9322 15.4554 31.7439 15.2499 31.6673C15.0417 31.5339 14.7748 31.5339 14.5666 31.6673L13.2833 32.9007C12.7607 33.4269 12.0498 33.7228 11.3083 33.7228C10.5667 33.7228 9.85578 33.4269 9.33325 32.9007L7.09992 30.634C6.56596 30.1124 6.26543 29.3971 6.26659 28.6507C6.27636 27.9064 6.5752 27.1952 7.09992 26.6673L8.44992 25.434C8.57156 25.2464 8.57156 25.0049 8.44992 24.8173C8.34992 24.5673 8.18325 24.384 7.94992 24.384H6.13325C4.58416 24.3748 3.33322 23.1164 3.33325 21.5673V18.4173C3.33325 16.8709 4.58685 15.6173 6.13325 15.6173H7.84992C8.0684 15.5989 8.25664 15.4561 8.33325 15.2507C8.46667 15.0424 8.46667 14.7756 8.33325 14.5673L7.09992 13.334C6.55816 12.8096 6.25229 12.0879 6.25229 11.334C6.25229 10.58 6.55816 9.85833 7.09992 9.33398L9.38325 7.10065C9.89975 6.56923 10.6089 6.26876 11.3499 6.26732C12.0941 6.27709 12.8054 6.57593 13.3333 7.10065L14.5666 8.45065C14.7541 8.57229 14.9957 8.57229 15.1833 8.45065C15.4333 8.35065 15.6166 8.18398 15.6166 7.95065V6.13398C15.6258 4.5849 16.8841 3.33396 18.4333 3.33398H21.6666C23.1803 3.37906 24.3839 4.61955 24.3833 6.13398V7.85065C24.4017 8.06913 24.5445 8.25738 24.7499 8.33398C24.9582 8.4674 25.225 8.4674 25.4333 8.33398L26.7166 7.10065C27.2391 6.57445 27.95 6.27852 28.6916 6.27852C29.4332 6.27852 30.1441 6.57445 30.6666 7.10065L32.8999 9.38399C33.4323 9.90669 33.7325 10.6212 33.7333 11.3673C33.7356 12.1092 33.4346 12.8197 32.8999 13.334L31.5499 14.5673C31.4283 14.7549 31.4283 14.9964 31.5499 15.184C31.6499 15.434 31.8166 15.6173 32.0499 15.6173ZM14.6108 22.2331C15.5137 24.4129 17.6407 25.8342 20.0001 25.8342C23.2218 25.8342 25.8334 23.2225 25.8334 20.0008C25.8334 17.6415 24.4122 15.5144 22.2324 14.6115C20.0526 13.7086 17.5436 14.2077 15.8753 15.876C14.207 17.5444 13.7079 20.0534 14.6108 22.2331Z" fill="#5FB669"/>
</svg>
