<svg width="40" height="40" viewBox="0 0 40 40" fill="none" xmlns="http://www.w3.org/2000/svg">
<path fill-rule="evenodd" clip-rule="evenodd" d="M6.25 13.75C4.17893 13.75 2.5 15.4289 2.5 17.5V33.75C2.5 35.8211 4.17893 37.5 6.25 37.5H33.75C35.8211 37.5 37.5 35.8211 37.5 33.75V17.5C37.5 15.4289 35.8211 13.75 33.75 13.75H6.25ZM25 26.25C25 29.0114 22.7614 31.25 20 31.25C17.2386 31.25 15 29.0114 15 26.25C15 23.4886 17.2386 21.25 20 21.25C22.7614 21.25 25 23.4886 25 26.25ZM22.5 26.25C22.5 27.6307 21.3807 28.75 20 28.75C18.6193 28.75 17.5 27.6307 17.5 26.25C17.5 24.8693 18.6193 23.75 20 23.75C21.3807 23.75 22.5 24.8693 22.5 26.25ZM11.25 26.25C11.25 26.9404 10.6904 27.5 10 27.5C9.30964 27.5 8.75 26.9404 8.75 26.25C8.75 25.5596 9.30964 25 10 25C10.6904 25 11.25 25.5596 11.25 26.25ZM31.25 26.25C31.25 26.9404 30.6904 27.5 30 27.5C29.3096 27.5 28.75 26.9404 28.75 26.25C28.75 25.5596 29.3096 25 30 25C30.6904 25 31.25 25.5596 31.25 26.25Z" fill="#5FB669"/>
<path d="M21.25 8.17245L22.7898 6.32478C23.2317 5.79444 24.0199 5.72278 24.5503 6.16474C25.0806 6.60669 25.1523 7.3949 24.7103 7.92525L20.9603 12.4252C20.7228 12.7102 20.371 12.875 20 12.875C19.6291 12.875 19.2772 12.7102 19.0398 12.4252L15.2898 7.92525C14.8478 7.3949 14.9195 6.60669 15.4498 6.16474C15.9801 5.72278 16.7684 5.79444 17.2103 6.32478L18.75 8.17245L18.75 3.75C18.75 3.05964 19.3097 2.5 20 2.5C20.6904 2.5 21.25 3.05964 21.25 3.75L21.25 8.17245Z" fill="#5FB669"/>
</svg>
