<svg width="40" height="40" viewBox="0 0 40 40" fill="none" xmlns="http://www.w3.org/2000/svg">
<path fill-rule="evenodd" clip-rule="evenodd" d="M8.33333 10.418C7.11776 10.418 5.95197 10.9009 5.09243 11.7604C4.23289 12.6199 3.75 13.7857 3.75 15.0013V30.0013C3.75 31.2169 4.23289 32.3827 5.09243 33.2422C5.95197 34.1018 7.11776 34.5846 8.33333 34.5846H31.6667C32.8822 34.5846 34.048 34.1018 34.9076 33.2422C35.7671 32.3827 36.25 31.2169 36.25 30.0013V15.0013C36.25 13.7857 35.7671 12.6199 34.9076 11.7604C34.048 10.9009 32.8822 10.418 31.6667 10.418H8.33333ZM27.5 20.418C26.9475 20.418 26.4176 20.6375 26.0269 21.0282C25.6362 21.4189 25.4167 21.9488 25.4167 22.5013C25.4167 23.0538 25.6362 23.5837 26.0269 23.9744C26.4176 24.3651 26.9475 24.5846 27.5 24.5846C28.0525 24.5846 28.5824 24.3651 28.9731 23.9744C29.3638 23.5837 29.5833 23.0538 29.5833 22.5013C29.5833 21.9488 29.3638 21.4189 28.9731 21.0282C28.5824 20.6375 28.0525 20.418 27.5 20.418Z" fill="#87B7FF"/>
<path d="M27.475 5.11631C27.9685 4.98481 28.4856 4.96845 28.9863 5.0685C29.4871 5.16854 29.9583 5.38232 30.3633 5.69332C30.7684 6.00433 31.0966 6.40425 31.3226 6.86222C31.5485 7.32019 31.6663 7.82396 31.6667 8.33465H15L27.475 5.11631Z" fill="#87B7FF"/>
</svg>
