<svg width="40" height="40" viewBox="0 0 40 40" fill="none" xmlns="http://www.w3.org/2000/svg">
<path fill-rule="evenodd" clip-rule="evenodd" d="M6.25 13.75C4.17893 13.75 2.5 15.4289 2.5 17.5V33.75C2.5 35.8211 4.17893 37.5 6.25 37.5H33.75C35.8211 37.5 37.5 35.8211 37.5 33.75V17.5C37.5 15.4289 35.8211 13.75 33.75 13.75H6.25ZM25 26.25C25 29.0114 22.7614 31.25 20 31.25C17.2386 31.25 15 29.0114 15 26.25C15 23.4886 17.2386 21.25 20 21.25C22.7614 21.25 25 23.4886 25 26.25ZM22.5 26.25C22.5 27.6307 21.3807 28.75 20 28.75C18.6193 28.75 17.5 27.6307 17.5 26.25C17.5 24.8693 18.6193 23.75 20 23.75C21.3807 23.75 22.5 24.8693 22.5 26.25ZM11.25 26.25C11.25 26.9404 10.6904 27.5 10 27.5C9.30964 27.5 8.75 26.9404 8.75 26.25C8.75 25.5596 9.30964 25 10 25C10.6904 25 11.25 25.5596 11.25 26.25ZM31.25 26.25C31.25 26.9404 30.6904 27.5 30 27.5C29.3096 27.5 28.75 26.9404 28.75 26.25C28.75 25.5596 29.3096 25 30 25C30.6904 25 31.25 25.5596 31.25 26.25Z" fill="#87B7FF"/>
<path d="M18.75 7.20255L17.2102 9.05022C16.7683 9.58056 15.9801 9.65222 15.4497 9.21026C14.9194 8.76831 14.8477 7.9801 15.2897 7.44975L19.0397 2.94975C19.2772 2.66476 19.629 2.49999 20 2.49999C20.3709 2.49999 20.7228 2.66476 20.9602 2.94975L24.7102 7.44975C25.1522 7.9801 25.0805 8.76831 24.5502 9.21026C24.0199 9.65222 23.2316 9.58056 22.7897 9.05022L21.25 7.20255L21.25 11.625C21.25 12.3154 20.6903 12.875 20 12.875C19.3096 12.875 18.75 12.3154 18.75 11.625L18.75 7.20255Z" fill="#87B7FF"/>
</svg>
